<?xml version="1.0" standalone="no"?>
<!DOCTYPE svg PUBLIC "-//W3C//DTD SVG 20010904//EN"
 "http://www.w3.org/TR/2001/REC-SVG-20010904/DTD/svg10.dtd">
<svg version="1.0" xmlns="http://www.w3.org/2000/svg"
 width="128.000000pt" height="128.000000pt" viewBox="0 0 128.000000 128.000000"
 preserveAspectRatio="xMidYMid meet">
<metadata>
Created by potrace 1.11, written by Peter Selinger 2001-2013
</metadata>
<g transform="translate(0.000000,128.000000) scale(0.100000,-0.100000)"
fill="#000000" stroke="none">
<path d="M376 1122 c-33 -9 -61 -23 -64 -29 -2 -7 1 -13 7 -13 6 0 11 -5 11
-10 0 -6 9 -29 19 -53 58 -128 71 -161 71 -173 0 -8 5 -14 10 -14 6 0 10 -6
10 -12 0 -7 11 -35 25 -63 14 -27 23 -55 21 -62 -3 -7 -21 -13 -42 -13 -26 0
-50 -10 -84 -35 -26 -19 -53 -35 -59 -35 -6 0 -11 -4 -11 -8 0 -5 -10 -21 -23
-35 -16 -19 -28 -25 -45 -21 -13 4 -22 2 -22 -5 0 -6 -6 -10 -12 -9 -20 5 -21
-41 -3 -107 22 -78 45 -125 62 -125 7 0 13 -4 13 -10 0 -5 9 -10 19 -10 11 0
23 -5 26 -10 3 -6 26 -19 50 -30 35 -16 65 -20 145 -20 104 0 126 7 172 52 10
10 22 18 26 18 4 0 15 13 25 29 14 24 17 56 17 190 0 138 2 160 15 155 11 -5
12 -10 4 -26 -8 -14 -8 -27 -1 -42 5 -11 17 -37 26 -57 10 -23 25 -39 40 -43
14 -3 59 -22 101 -41 88 -41 105 -37 105 26 0 34 3 39 28 45 15 4 46 15 70 25
45 20 55 47 27 75 -11 11 -12 20 -5 33 7 14 3 27 -18 54 -15 20 -35 39 -46 43
-16 5 -18 13 -13 64 4 39 2 66 -6 82 -35 65 -85 129 -109 139 -15 6 -39 22
-53 35 -22 20 -41 25 -143 33 -64 6 -133 15 -152 21 -51 15 -167 11 -234 -8z"/>
</g>
</svg>
